<?xml version="1.0" encoding="UTF-8"?>
<svg width="328px" height="123px" viewBox="0 0 328 123" version="1.1" xmlns="http://www.w3.org/2000/svg" xmlns:xlink="http://www.w3.org/1999/xlink">
    <!-- Generator: Sketch 52.1 (67048) - http://www.bohemiancoding.com/sketch -->
    <title>Pottercom</title>
    <desc>Created with Sketch.</desc>
    <g id="Page-1" stroke="none" stroke-width="1" fill="none" fill-rule="evenodd">
        <g id="Artboard" transform="translate(-557.000000, -76.000000)" fill="#3C4857">
            <path d="M603.9775,97.149 L601.1835,125.851 L587.4675,133.217 L577.6885,123.057 L577.8155,150.235 L572.9895,142.869 L572.4815,141.853 L573.2435,175 L569.1795,168.65 L566.3855,199.13 L557.2415,146.679 L561.8135,149.727 L556.9875,118.231 L563.3375,121.025 L558.0035,76.448 L577.5615,76.448 L577.5615,83.306 L589.7535,78.226 L603.9775,97.149 Z M588.9915,122.041 L587.4675,84.83 L577.5615,88.894 L577.6885,120.771 L586.4515,125.343 L588.9915,122.041 Z M640.9345,152.775 C641.357835,154.891677 639.029525,157.26232 633.9495,159.887 C629.716146,162.088344 626.244847,163.358332 623.5355,163.697 L621.2495,163.316 C612.698124,156.711967 608.168503,152.478676 607.6605,150.616 C607.491166,146.636647 607.872162,136.815412 608.8035,121.152 C614.645529,116.918645 620.699135,113.701344 626.9645,111.5 L635.9815,117.723 L636.9975,119.374 C638.860176,121.152009 639.960832,124.961971 640.2995,130.804 C640.468834,133.767348 640.680499,141.090942 640.9345,152.775 Z M628.7425,155.823 C628.7425,133.72489 627.938175,120.64402 626.3295,116.58 L622.2655,118.993 C620.826159,120.093672 619.894835,121.236661 619.4715,122.422 L620.1065,155.823 C620.69917,157.516342 621.842158,158.743996 623.5355,159.506 C626.075513,158.743996 627.811162,157.516342 628.7425,155.823 Z M667.3505,109.849 L660.2385,109.849 L659.0955,163.824 C658.926166,164.162668 658.8415,164.501332 658.8415,164.84 C658.8415,166.364008 660.87348,168.861649 664.9375,172.333 L654.5235,168.523 C650.45948,166.998992 648.300501,165.178677 648.0465,163.062 L648.6815,109.341 L638.0135,109.341 C645.29487,105.27698 652.57613,98.2497166 659.8575,88.259 L659.6035,104.388 L666.2075,104.388 L667.3505,109.849 Z M693.0045,109.849 L685.8925,109.849 L684.7495,163.824 C684.580166,164.162668 684.4955,164.501332 684.4955,164.84 C684.4955,166.364008 686.52748,168.861649 690.5915,172.333 L680.1775,168.523 C676.11348,166.998992 673.954501,165.178677 673.7005,163.062 L674.3355,109.341 L663.6675,109.341 C670.94887,105.27698 678.23013,98.2497166 685.5115,88.259 L685.2575,104.388 L691.8615,104.388 L693.0045,109.849 Z M727.2945,127.248 L724.1195,133.852 C720.817483,131.904657 717.049855,130.931 712.8165,130.931 C710.276487,130.931 708.71017,131.269663 708.1175,131.947 L709.0065,152.775 C709.683837,154.214341 711.123156,155.526661 713.3245,156.712 C715.017842,154.510656 716.16083,151.759017 716.7535,148.457 C716.838167,148.118332 717.049832,145.959353 717.3885,141.98 L722.9765,149.092 L715.2295,160.141 L708.7525,160.268 L695.9255,149.092 C695.248163,145.874651 694.9095,142.191687 694.9095,138.043 C694.9095,132.116304 695.502161,125.893366 696.6875,119.374 L710.9115,108.198 C711.927505,107.859332 712.774163,107.901665 713.4515,108.325 L723.7385,115.056 L727.2945,127.248 Z M718.1505,128.01 L711.6735,113.405 C711.08083,112.642996 710.699834,112.262 710.5305,112.262 C710.191832,112.262 709.853168,112.55833 709.5145,113.151 L707.9905,127.629 C712.731857,127.374999 716.11849,127.501997 718.1505,128.01 Z M728.6915,102.229 C733.009522,99.2656518 737.920139,95.5826887 743.4235,91.18 L743.4235,102.61 C747.826189,98.7999809 750.704827,96.895 752.0595,96.895 C752.482835,96.895 752.779166,97.0219987 752.9485,97.276 L758.9175,107.69 C759.594837,108.452004 759.9335,109.213996 759.9335,109.976 C759.9335,110.822671 759.510171,111.372999 758.6635,111.627 L746.9795,118.485 L746.9795,117.977 C748.757509,116.283658 749.773499,114.717341 750.0275,113.278 C749.688832,112.007994 749.096171,110.441676 748.2495,108.579 C747.148828,106.208321 746.30217,105.107666 745.7095,105.277 C745.201497,105.361667 744.566504,105.911995 743.8045,106.928 C743.465832,119.543396 743.677496,131.989272 744.4395,144.266 C744.608834,146.975347 745.921154,148.62633 748.3765,149.219 C747.191161,149.219 745.392012,149.176667 742.979,149.092 C740.565988,149.007333 738.766839,148.965 737.5815,148.965 C736.819496,148.965 735.655341,149.007333 734.089,149.092 C732.522659,149.176667 731.358504,149.219 730.5965,149.219 C732.797844,148.287662 734.110165,147.52567 734.5335,146.933 C734.872168,146.594332 735.0415,145.747673 735.0415,144.393 L735.2955,101.975 L728.6915,102.229 Z M792.1915,123.565 L780.5075,131.439 C782.116175,128.644986 782.793501,126.105011 782.5395,123.819 C781.438828,122.379659 778.85652,119.797352 774.7925,116.072 C774.453832,116.072 774.115168,116.36833 773.7765,116.961 L771.9985,131.439 L773.2685,156.585 C773.945837,158.024341 775.385156,159.336661 777.5865,160.522 L781.5235,156.585 C783.386176,154.722324 784.444499,153.113673 784.6985,151.759 C784.6985,151.674333 784.740833,151.208671 784.8255,150.362 L785.3335,145.282 L790.9215,152.394 L779.4915,163.951 L773.0145,164.078 L760.1875,152.902 C759.510163,149.684651 759.1715,146.001687 759.1715,141.853 C759.1715,135.926304 759.764161,129.703366 760.9495,123.184 L775.1735,112.008 C775.681503,111.838666 776.570494,111.754 777.8405,111.754 C779.025839,111.754 779.830165,111.880999 780.2535,112.135 L790.5405,118.866 L792.1915,123.565 Z M827.8785,152.775 C828.301835,154.891677 825.973525,157.26232 820.8935,159.887 C816.660145,162.088344 813.188847,163.358332 810.4795,163.697 L808.1935,163.316 C799.642124,156.711967 795.112503,152.478676 794.6045,150.616 C794.435166,146.636647 794.816162,136.815412 795.7475,121.152 C801.589529,116.918645 807.643135,113.701344 813.9085,111.5 L822.9255,117.723 L823.9415,119.374 C825.804176,121.152009 826.904832,124.961971 827.2435,130.804 C827.412834,133.767348 827.624499,141.090942 827.8785,152.775 Z M815.6865,155.823 C815.6865,133.72489 814.882175,120.64402 813.2735,116.58 L809.2095,118.993 C807.770159,120.093672 806.838835,121.236661 806.4155,122.422 L807.0505,155.823 C807.64317,157.516342 808.786158,158.743996 810.4795,159.506 C813.019513,158.743996 814.755162,157.516342 815.6865,155.823 Z M864.7085,110.611 C865.555171,109.933663 866.549994,108.600177 867.693,106.6105 C868.836006,104.620823 869.70383,103.414335 870.2965,102.991 C873.852518,100.281653 875.969163,98.927 876.6465,98.927 C877.069835,98.927 877.366166,99.0539987 877.5355,99.308 L884.7745,109.722 C884.859167,109.806667 884.9015,122.80287 884.9015,148.711 C884.9015,149.557671 884.478171,150.107999 883.6315,150.362 L871.9475,157.22 L871.9475,156.712 C873.725509,155.018658 874.741499,153.452341 874.9955,152.013 C874.910833,138.6356 874.529837,124.665739 873.8525,110.103 C873.25983,108.917661 872.286173,108.325 870.9315,108.325 C870.33883,108.325 869.703837,108.409666 869.0265,108.579 C868.095162,110.272342 866.655843,112.473653 864.7085,115.183 L864.8355,129.153 L864.7085,141.726 C864.7085,141.980001 864.666167,142.572662 864.5815,143.504 L864.5815,147.441 C864.5815,148.287671 864.158171,148.837999 863.3115,149.092 L851.6275,155.95 L851.6275,155.442 C853.405509,153.748658 854.421499,152.182341 854.6755,150.743 C854.590833,137.3656 854.209837,123.395739 853.5325,108.833 C852.93983,107.647661 851.966173,107.055 850.6115,107.055 C850.01883,107.055 849.383837,107.139666 848.7065,107.309 C847.521161,109.595011 846.039509,112.261985 844.2615,115.31 C844.007499,124.369379 844.219163,134.27528 844.8965,145.028 C845.065834,147.737347 846.378154,149.38833 848.8335,149.981 C847.648161,149.981 845.849012,149.938667 843.436,149.854 C841.022988,149.769333 839.223839,149.727 838.0385,149.727 C837.276496,149.727 836.112341,149.769333 834.546,149.854 C832.979659,149.938667 831.815504,149.981 831.0535,149.981 C833.254844,149.049662 834.567165,148.28767 834.9905,147.695 C835.329168,147.356332 835.4985,146.509673 835.4985,145.155 L836.1335,113.024 C835.286829,110.99199 834.143841,109.976 832.7045,109.976 C832.365832,109.976 831.794337,110.102999 830.99,110.357 C830.185663,110.611001 829.571835,110.695667 829.1485,110.611 C833.043186,108.494323 835.710159,106.928005 837.1495,105.912 C840.028181,103.964657 842.271825,101.848011 843.8805,99.562 L843.8805,110.992 C845.489175,108.197986 847.521154,105.107684 849.9765,101.721 C853.532518,99.0116531 855.649163,97.657 856.3265,97.657 C856.749835,97.657 857.046166,97.7839987 857.2155,98.038 L864.4545,108.452 C864.539167,108.536667 864.623833,109.256327 864.7085,110.611 Z" id="Pottercom"></path>
        </g>
    </g>
</svg>